<?xml version="1.0" encoding="iso-8859-1"?>
<!-- Generator: Adobe Illustrator 19.0.0, SVG Export Plug-In . SVG Version: 6.00 Build 0)  -->
<svg version="1.1" id="Layer_1" xmlns="http://www.w3.org/2000/svg" xmlns:xlink="http://www.w3.org/1999/xlink" x="0px" y="0px"
	 viewBox="0 0 512 512" style="enable-background:new 0 0 512 512;" xml:space="preserve">
<path style="fill:#32A8EA;" d="M216.416,415.723H41.28l22.967-223.4c2.581-25.078,19.205-45.599,41.577-54.084
	c7.168-2.727,14.942-4.211,23.019-4.211c33.291,0,61.189,25.182,64.596,58.295l6.531,63.509l4.786,46.519L216.416,415.723z"/>
<path style="fill:#2094C6;" d="M78.907,415.723H41.28l22.967-223.4c2.581-25.078,19.205-45.599,41.577-54.084
	C105.823,138.239,60.318,319.446,78.907,415.723z"/>
<path style="fill:#FCE5C5;" d="M128.842,134.028c18.547,0,35.422,7.816,47.324,20.47c-12.11,12.089-28.839,19.561-47.324,19.561
	c-18.474,0-35.213-7.471-47.324-19.561C93.42,141.844,110.295,134.028,128.842,134.028z"/>
<path style="fill:#EF5959;" d="M177.357,504.299V512H97.495v-96.277h51.827v60.542C164.808,476.264,177.357,488.814,177.357,504.299
	z"/>
<g>
	<rect x="97.492" y="415.724" style="fill:#FCE5C5;" width="51.827" height="60.542"/>
	<circle style="fill:#FCE5C5;" cx="128.85" cy="67.02" r="67.02"/>
</g>
<path style="fill:#EAD2B5;" d="M99.444,67.016c0-30.48,20.356-56.189,48.209-64.321C141.683,0.952,135.377,0,128.846,0
	C91.833,0,61.829,30.004,61.829,67.016s30.004,67.016,67.016,67.016c6.532,0,12.838-0.952,18.807-2.695
	C119.799,123.206,99.444,97.495,99.444,67.016z"/>
<g>
	<path style="fill:#FCE5C5;" d="M234.228,282.655c0,3.02-0.648,6.102-2.038,9.049c-4.566,9.718-15.663,14.514-25.882,11.17
		l-66.194-22.047c-6.102-2.027-10.459-7.429-11.149-13.814l-2.853-26.206l39.226-17.857l1.808,21.849l52.391,17.607
		C228.617,265.362,234.228,273.763,234.228,282.655z"/>
	<path style="fill:#FCE5C5;" d="M272.66,216.06L272.66,216.06c-2.052,7.914,2.427,16.054,10.211,18.555l15.391,4.948v20.039
		c0,11.894,9.642,21.536,21.536,21.536h54.779c17.869,0,32.353-14.485,32.353-32.353l0,0c0-8.581-3.408-16.81-9.476-22.877
		l-26.511-30.253c-5.734-6.543-15.761-6.999-22.065-1.002l0,0c-5.626,5.351-6.355,14.066-1.696,20.277l13.773,18.364h-37.616v-6.971
		c0-8.706-6.145-16.201-14.682-17.909l-18.042-3.608C282.594,203.202,274.714,208.141,272.66,216.06z"/>
	<circle style="fill:#FCE5C5;" cx="428.318" cy="230.693" r="28.735"/>
</g>
<rect x="271.677" y="281.141" style="fill:#B3B3B3;" width="199.043" height="37.614"/>
<g>
</g>
<g>
</g>
<g>
</g>
<g>
</g>
<g>
</g>
<g>
</g>
<g>
</g>
<g>
</g>
<g>
</g>
<g>
</g>
<g>
</g>
<g>
</g>
<g>
</g>
<g>
</g>
<g>
</g>
</svg>
